<svg xmlns="http://www.w3.org/2000/svg" xmlns:xlink="http://www.w3.org/1999/xlink" preserveAspectRatio="xMidYMid" width="650" height="650" viewBox="0 0 650 650">
  <defs>
    <style>
      .cls-1, .cls-3 {
        fill: #6ec8b2;
      }

      .cls-2 {
        fill: #f3f3e6;
      }

      .cls-3, .cls-4 {
        fill-rule: evenodd;
      }

      .cls-4, .cls-5 {
        fill: #111;
      }
    </style>
  </defs>
  <circle cx="331.5" cy="321.5" r="270.5" class="cls-1"/>
  <circle cx="352" cy="357" r="193" class="cls-2"/>
  <path d="M420.620,463.284 L435.248,451.743 C439.748,447.831 446.714,448.147 450.807,452.448 L582.132,576.848 C586.225,581.149 585.895,587.806 581.396,591.718 L560.767,613.259 C556.267,617.171 549.301,616.856 545.208,612.555 L419.883,478.154 C415.790,473.854 416.120,467.196 420.620,463.284 Z" class="cls-3"/>
  <path d="M231.000,419.000 C217.193,419.000 206.000,408.031 206.000,394.500 C206.000,380.969 217.193,370.000 231.000,370.000 C244.807,370.000 256.000,380.969 256.000,394.500 C256.000,408.031 244.807,419.000 231.000,419.000 Z" class="cls-4"/>
  <ellipse cx="476" cy="394.5" rx="25" ry="24.5" class="cls-5"/>
  <ellipse cx="368" cy="466" rx="31" ry="20" class="cls-5"/>
</svg>
